<?xml version="1.0" encoding="UTF-8"?>
<!DOCTYPE svg PUBLIC "-//W3C//DTD SVG 1.1//EN" "http://www.w3.org/Graphics/SVG/1.1/DTD/svg11.dtd">
<!-- Creator: CorelDRAW X8 -->
<svg xmlns="http://www.w3.org/2000/svg" xml:space="preserve" width="141.565mm" height="120.51mm" version="1.1" style="shape-rendering:geometricPrecision; text-rendering:geometricPrecision; image-rendering:optimizeQuality; fill-rule:evenodd; clip-rule:evenodd"
viewBox="0 0 10326 8791"
 xmlns:xlink="http://www.w3.org/1999/xlink">
 <defs>
  <style type="text/css">
   <![CDATA[
    .fil5 {fill:none}
    .fil1 {fill:#727376}
    .fil0 {fill:#EC268F}
    .fil2 {fill:#00AFEF}
    .fil4 {fill:#EC268F;fill-rule:nonzero}
    .fil3 {fill:#3E4095;fill-rule:nonzero}
   ]]>
  </style>
 </defs>
 <g id="Capa_x0020_1">
  <metadata id="CorelCorpID_0Corel-Layer"/>
  <polygon class="fil0" points="6916,3422 9207,4577 9207,5050 6916,3895 "/>
  <polygon class="fil0" points="6916,4167 9207,5321 9207,5794 6916,4640 "/>
  <polygon class="fil1" points="5937,3035 5937,2630 5413,2417 5413,3248 4626,3670 4626,4296 6916,3141 9207,4296 9207,3670 6916,2516 "/>
  <polygon class="fil1" points="4626,5572 4626,4514 5150,4302 5150,5785 "/>
  <path class="fil2" d="M7385 2484l1822 -919 0 -473 -2291 1156 469 236zm715 426l1107 -558 0 -473 -1576 794 469 237zm715 425l392 -197 0 -473 -861 434 469 236z"/>
  <path class="fil3" d="M1641 4190l232 1559 -414 0 -22 -280 -146 0 -22 280 -420 0 206 -1559 586 0zm-215 1003c-19,-176 -39,-395 -61,-656 -40,299 -66,518 -76,656l137 0zm517 -1003l404 0c127,0 224,10 289,30 66,20 119,60 159,121 41,60 61,158 61,293 0,91 -14,154 -43,190 -28,36 -85,63 -169,83 94,21 158,56 191,105 34,49 50,125 50,226l0 145c0,106 -12,183 -36,234 -24,51 -62,86 -114,104 -53,19 -161,28 -324,28l-468 0 0 -1559zm406 266l0 347c17,-1 30,-1 40,-1 39,0 64,-10 74,-29 11,-20 16,-76 16,-168 0,-49 -4,-83 -13,-103 -9,-20 -20,-32 -34,-37 -14,-5 -42,-8 -83,-9zm0 590l0 437c56,-2 92,-11 107,-27 16,-16 23,-56 23,-119l0 -145c0,-68 -7,-108 -20,-122 -14,-15 -51,-22 -110,-24zm1629 -176l-406 0 0 -271c0,-78 -5,-127 -13,-147 -9,-19 -28,-29 -57,-29 -33,0 -54,12 -63,35 -9,24 -13,75 -13,154l0 724c0,76 4,125 13,148 9,23 29,35 60,35 30,0 50,-12 59,-35 9,-23 14,-78 14,-163l0 -197 406 0 0 61c0,162 -12,277 -34,344 -23,68 -74,127 -151,178 -79,51 -175,76 -289,76 -119,0 -216,-21 -294,-64 -77,-44 -128,-103 -153,-179 -25,-76 -37,-191 -37,-344l0 -455c0,-112 4,-196 11,-253 8,-56 31,-110 69,-162 38,-52 91,-93 159,-123 68,-30 146,-44 234,-44 119,0 217,23 295,69 78,46 129,103 153,172 25,69 37,176 37,322l0 148z"/>
  <path class="fil3" d="M1262 6450l-203 0 0 -138c0,-40 -2,-65 -7,-75 -4,-10 -13,-15 -28,-15 -16,0 -27,6 -31,18 -5,13 -7,39 -7,79l0 368c0,39 2,64 7,76 4,12 14,18 30,18 14,0 24,-6 29,-18 5,-12 7,-40 7,-83l0 -100 203 0 0 31c0,82 -6,140 -17,175 -11,34 -37,64 -76,90 -39,26 -87,39 -144,39 -59,0 -108,-11 -147,-33 -38,-22 -64,-52 -77,-91 -12,-39 -18,-97 -18,-175l0 -232c0,-57 2,-100 6,-128 3,-29 15,-56 34,-83 19,-26 46,-47 79,-62 34,-16 73,-23 117,-23 60,0 109,12 148,35 39,24 64,53 77,88 12,35 18,90 18,164l0 75zm535 119c0,80 -2,137 -6,170 -3,33 -15,63 -34,91 -19,27 -46,48 -79,63 -33,15 -71,22 -115,22 -42,0 -79,-7 -112,-21 -34,-14 -60,-34 -80,-62 -21,-28 -33,-58 -37,-91 -3,-33 -5,-90 -5,-172l0 -135c0,-80 1,-137 5,-170 4,-33 15,-63 35,-91 19,-27 45,-48 78,-63 34,-15 72,-22 116,-22 42,0 79,7 112,21 33,14 60,34 80,62 20,28 32,58 36,91 4,33 6,90 6,172l0 135zm-203 -260c0,-37 -2,-61 -6,-71 -4,-10 -12,-16 -24,-16 -11,0 -18,5 -24,13 -5,8 -8,33 -8,74l0 370c0,46 2,75 5,85 4,11 12,17 25,17 14,0 23,-7 26,-19 4,-12 6,-42 6,-89l0 -364zm732 -205l0 794 -178 0 -105 -361 0 361 -170 0 0 -794 170 0 113 357 0 -357 170 0zm510 241l-188 0 0 -59c0,-27 -3,-45 -8,-52 -4,-8 -12,-12 -23,-12 -12,0 -22,5 -28,16 -6,10 -9,25 -9,45 0,27 3,47 10,60 7,13 26,30 58,49 90,54 146,99 170,134 23,35 35,92 35,169 0,57 -7,99 -20,126 -13,26 -38,49 -75,67 -37,18 -80,27 -130,27 -54,0 -100,-10 -139,-31 -38,-21 -63,-48 -75,-80 -12,-33 -18,-79 -18,-138l0 -52 189 0 0 96c0,30 2,49 8,58 5,8 14,13 28,13 13,0 23,-6 30,-17 6,-10 10,-26 10,-48 0,-46 -7,-77 -19,-91 -13,-14 -45,-39 -95,-72 -50,-34 -83,-59 -100,-74 -16,-16 -30,-37 -41,-64 -10,-27 -16,-62 -16,-104 0,-61 8,-105 23,-134 16,-28 40,-50 74,-65 34,-16 75,-24 123,-24 53,0 97,9 135,26 36,17 61,39 73,65 12,27 18,71 18,134l0 32zm489 -241l0 158 -119 0 0 636 -203 0 0 -636 -120 0 0 -158 442 0zm47 0l143 0c96,0 160,4 194,11 34,8 62,27 83,58 21,31 32,80 32,148 0,61 -7,103 -23,124 -14,21 -44,34 -89,38 40,10 68,24 81,41 14,17 23,33 26,47 4,14 5,53 5,117l0 210 -188 0 0 -264c0,-43 -3,-69 -10,-79 -6,-10 -24,-15 -51,-15l0 358 -203 0 0 -794zm203 135l0 177c22,0 38,-3 47,-9 9,-7 14,-28 14,-63l0 -43c0,-25 -5,-42 -13,-50 -9,-8 -25,-12 -48,-12zm788 -135l0 531c0,60 -2,102 -6,127 -4,24 -15,49 -34,75 -19,26 -44,45 -75,58 -31,13 -67,20 -109,20 -47,0 -88,-8 -123,-24 -36,-15 -63,-36 -80,-61 -18,-25 -28,-52 -32,-80 -3,-28 -4,-86 -4,-176l0 -470 203 0 0 596c0,34 1,56 5,66 4,10 11,15 22,15 13,0 21,-6 24,-16 4,-11 6,-36 6,-76l0 -585 203 0zm552 346l-203 0 0 -138c0,-40 -2,-65 -7,-75 -4,-10 -13,-15 -28,-15 -16,0 -27,6 -31,18 -5,13 -7,39 -7,79l0 368c0,39 2,64 7,76 4,12 14,18 30,18 14,0 24,-6 29,-18 5,-12 7,-40 7,-83l0 -100 203 0 0 31c0,82 -6,140 -17,175 -11,34 -37,64 -76,90 -39,26 -87,39 -144,39 -59,0 -108,-11 -147,-33 -38,-22 -64,-52 -77,-91 -12,-39 -18,-97 -18,-175l0 -232c0,-57 2,-100 6,-128 3,-29 15,-56 34,-83 19,-26 46,-47 79,-62 34,-16 73,-23 117,-23 60,0 109,12 148,35 39,24 64,53 77,88 12,35 18,90 18,164l0 75zm481 -346l0 158 -120 0 0 636 -203 0 0 -636 -120 0 0 -158 443 0zm509 465c0,80 -2,137 -6,170 -4,33 -15,63 -35,91 -19,27 -45,48 -78,63 -33,15 -72,22 -116,22 -41,0 -79,-7 -112,-21 -33,-14 -60,-34 -80,-62 -20,-28 -32,-58 -36,-91 -4,-33 -6,-90 -6,-172l0 -135c0,-80 2,-137 6,-170 3,-33 15,-63 34,-91 20,-27 46,-48 79,-63 33,-15 71,-22 115,-22 42,0 79,7 113,21 33,14 60,34 80,62 20,28 32,58 36,91 4,33 6,90 6,172l0 135zm-204 -260c0,-37 -2,-61 -5,-71 -4,-10 -12,-16 -25,-16 -10,0 -18,5 -23,13 -6,8 -9,33 -9,74l0 370c0,46 2,75 6,85 3,11 12,17 25,17 13,0 22,-7 26,-19 4,-12 5,-42 5,-89l0 -364zm280 -205l143 0c96,0 161,4 194,11 34,8 62,27 83,58 22,31 32,80 32,148 0,61 -7,103 -22,124 -15,21 -45,34 -89,38 40,10 67,24 81,41 13,17 22,33 25,47 4,14 5,53 5,117l0 210 -188 0 0 -264c0,-43 -3,-69 -10,-79 -6,-10 -23,-15 -51,-15l0 358 -203 0 0 -794zm203 135l0 177c23,0 38,-3 47,-9 9,-7 14,-28 14,-63l0 -43c0,-25 -4,-42 -13,-50 -9,-8 -25,-12 -48,-12zm328 -135l338 0 0 158 -135 0 0 152 126 0 0 151 -126 0 0 174 149 0 0 159 -352 0 0 -794zm838 241l-188 0 0 -59c0,-27 -2,-45 -7,-52 -5,-8 -13,-12 -24,-12 -12,0 -21,5 -28,16 -6,10 -9,25 -9,45 0,27 4,47 11,60 7,13 26,30 57,49 90,54 147,99 170,134 23,35 35,92 35,169 0,57 -7,99 -20,126 -12,26 -37,49 -75,67 -37,18 -80,27 -130,27 -54,0 -100,-10 -138,-31 -39,-21 -64,-48 -76,-80 -12,-33 -17,-79 -17,-138l0 -52 188 0 0 96c0,30 2,49 8,58 5,8 14,13 28,13 13,0 23,-6 30,-17 6,-10 10,-26 10,-48 0,-46 -6,-77 -19,-91 -13,-14 -44,-39 -95,-72 -50,-34 -83,-59 -100,-74 -16,-16 -30,-37 -40,-64 -11,-27 -16,-62 -16,-104 0,-61 7,-105 22,-134 16,-28 40,-50 74,-65 34,-16 75,-24 123,-24 53,0 98,9 135,26 37,17 61,39 73,65 12,27 18,71 18,134l0 32z"/>
  <path class="fil4" d="M1019 7598l53 19c-8,34 -22,60 -41,77 -18,17 -42,26 -71,26 -36,0 -65,-15 -88,-44 -23,-28 -35,-67 -35,-117 0,-53 12,-94 35,-123 23,-29 53,-43 91,-43 33,0 60,11 81,34 12,13 21,33 27,58l-54 15c-3,-16 -10,-29 -20,-39 -10,-9 -22,-14 -37,-14 -20,0 -36,9 -48,25 -13,17 -19,44 -19,82 0,40 6,68 18,85 13,17 29,26 48,26 15,0 27,-6 38,-16 10,-11 18,-28 22,-51zm88 -40c0,-32 4,-59 13,-81 6,-16 14,-31 25,-43 10,-13 22,-23 35,-29 16,-8 36,-12 58,-12 40,0 71,14 95,43 24,29 36,69 36,121 0,51 -12,91 -36,120 -23,29 -55,43 -95,43 -40,0 -72,-14 -95,-43 -24,-29 -36,-68 -36,-119zm56 -2c0,36 7,63 22,82 14,18 32,27 53,27 22,0 40,-9 54,-27 14,-19 21,-46 21,-83 0,-36 -7,-63 -21,-81 -13,-18 -31,-27 -54,-27 -22,0 -40,9 -54,27 -14,18 -21,46 -21,82zm248 158l0 -316 53 0 111 212 0 -212 51 0 0 316 -55 0 -109 -207 0 207 -51 0zm258 -102l53 -6c3,20 10,36 19,45 10,10 23,15 40,15 17,0 30,-4 39,-13 9,-9 13,-19 13,-30 0,-8 -2,-14 -5,-19 -4,-6 -10,-10 -20,-14 -6,-3 -20,-7 -43,-14 -29,-8 -50,-19 -61,-31 -17,-18 -25,-39 -25,-64 0,-16 4,-31 12,-45 7,-14 19,-25 33,-32 15,-8 32,-11 53,-11 34,0 59,8 76,26 17,17 26,41 27,70l-55 2c-2,-16 -7,-28 -14,-35 -8,-7 -19,-11 -35,-11 -15,0 -28,4 -36,12 -6,5 -9,11 -9,20 0,7 3,14 8,19 7,7 24,14 50,21 26,7 46,15 58,23 13,8 23,18 30,32 7,14 11,30 11,50 0,18 -4,35 -13,51 -9,16 -21,28 -36,35 -16,8 -36,12 -59,12 -34,0 -60,-9 -78,-28 -19,-18 -30,-45 -33,-80zm265 -214l55 0 0 171c0,28 1,45 2,53 2,13 8,24 16,31 9,8 21,12 36,12 15,0 27,-3 34,-11 8,-7 13,-16 14,-27 2,-11 3,-29 3,-54l0 -175 54 0 0 166c0,38 -1,65 -4,81 -3,16 -8,29 -16,40 -8,10 -19,19 -32,25 -13,7 -30,10 -51,10 -26,0 -46,-3 -59,-10 -13,-7 -24,-17 -31,-28 -8,-11 -13,-22 -15,-35 -4,-18 -6,-45 -6,-80l0 -169zm274 316l0 -313 54 0 0 260 135 0 0 53 -189 0zm261 0l0 -262 -80 0 0 -54 214 0 0 54 -80 0 0 262 -54 0zm151 -156c0,-32 4,-59 12,-81 6,-16 15,-31 25,-43 11,-13 23,-23 35,-29 17,-8 36,-12 58,-12 40,0 72,14 96,43 24,29 35,69 35,121 0,51 -11,91 -35,120 -24,29 -55,43 -95,43 -40,0 -72,-14 -96,-43 -23,-29 -35,-68 -35,-119zm56 -2c0,36 7,63 21,82 14,18 32,27 54,27 22,0 40,-9 54,-27 13,-19 20,-46 20,-83 0,-36 -6,-63 -20,-81 -14,-18 -32,-27 -54,-27 -23,0 -41,9 -54,27 -14,18 -21,46 -21,82zm248 158l0 -316 115 0c28,0 49,3 62,9 13,5 24,16 32,30 8,15 12,31 12,50 0,24 -6,43 -18,59 -12,15 -30,25 -53,29 11,8 21,17 29,26 7,10 18,27 30,52l33 61 -65 0 -39 -69c-14,-24 -23,-40 -29,-46 -5,-6 -10,-11 -16,-13 -6,-3 -15,-4 -27,-4l-11 0 0 132 -55 0zm55 -182l40 0c26,0 42,-1 49,-4 6,-2 11,-7 15,-13 4,-7 5,-15 5,-24 0,-11 -2,-19 -7,-26 -5,-6 -12,-11 -20,-12 -5,-1 -18,-1 -40,-1l-42 0 0 80zm217 182l0 -316 199 0 0 54 -145 0 0 70 135 0 0 53 -135 0 0 86 151 0 0 53 -205 0zm237 -102l53 -6c3,20 9,36 19,45 10,10 23,15 39,15 18,0 31,-4 40,-13 9,-9 13,-19 13,-30 0,-8 -2,-14 -6,-19 -3,-6 -10,-10 -19,-14 -6,-3 -21,-7 -43,-14 -29,-8 -50,-19 -62,-31 -16,-18 -24,-39 -24,-64 0,-16 4,-31 11,-45 8,-14 19,-25 34,-32 14,-8 32,-11 53,-11 33,0 59,8 76,26 17,17 26,41 27,70l-55 2c-2,-16 -7,-28 -15,-35 -7,-7 -19,-11 -34,-11 -16,0 -28,4 -37,12 -5,5 -8,11 -8,20 0,7 2,14 8,19 7,7 23,14 50,21 26,7 45,15 58,23 13,8 23,18 30,32 7,14 11,30 11,50 0,18 -5,35 -13,51 -9,16 -21,28 -37,35 -15,8 -35,12 -58,12 -34,0 -61,-9 -79,-28 -18,-18 -29,-45 -32,-80zm433 102l0 -133 -98 -183 63 0 64 125 62 -125 63 0 -99 184 0 132 -55 0zm264 -102l53 -6c3,20 10,36 20,45 9,10 22,15 39,15 17,0 31,-4 39,-13 9,-9 14,-19 14,-30 0,-8 -2,-14 -6,-19 -4,-6 -10,-10 -19,-14 -7,-3 -21,-7 -44,-14 -29,-8 -49,-19 -61,-31 -16,-18 -25,-39 -25,-64 0,-16 4,-31 12,-45 8,-14 19,-25 34,-32 14,-8 32,-11 52,-11 34,0 60,8 77,26 17,17 25,41 26,70l-54 2c-3,-16 -7,-28 -15,-35 -8,-7 -19,-11 -34,-11 -16,0 -28,4 -37,12 -6,5 -9,11 -9,20 0,7 3,14 8,19 7,7 24,14 50,21 27,7 46,15 59,23 12,8 22,18 30,32 7,14 10,30 10,50 0,18 -4,35 -13,51 -8,16 -20,28 -36,35 -16,8 -35,12 -59,12 -34,0 -60,-9 -78,-28 -18,-18 -29,-45 -33,-80zm266 102l0 -316 199 0 0 54 -145 0 0 70 135 0 0 53 -135 0 0 86 150 0 0 53 -204 0zm251 0l0 -316 114 0c29,0 50,3 63,9 13,5 24,16 31,30 8,15 12,31 12,50 0,24 -6,43 -18,59 -11,15 -29,25 -53,29 12,8 22,17 29,26 8,10 18,27 31,52l33 61 -65 0 -39 -69c-14,-24 -24,-40 -29,-46 -5,-6 -10,-11 -16,-13 -6,-3 -15,-4 -28,-4l-11 0 0 132 -54 0zm54 -182l40 0c27,0 43,-1 49,-4 7,-2 12,-7 16,-13 3,-7 5,-15 5,-24 0,-11 -2,-19 -7,-26 -5,-6 -12,-11 -21,-12 -4,-1 -17,-1 -39,-1l-43 0 0 80zm280 182l-97 -316 59 0 69 234 65 -234 58 0 -96 316 -58 0zm180 0l0 -316 54 0 0 316 -54 0zm279 -116l52 19c-8,34 -21,60 -40,77 -19,17 -43,26 -72,26 -35,0 -65,-15 -88,-44 -23,-28 -35,-67 -35,-117 0,-53 12,-94 35,-123 23,-29 54,-43 92,-43 33,0 59,11 80,34 12,13 21,33 28,58l-54 15c-3,-16 -10,-29 -20,-39 -10,-9 -23,-14 -37,-14 -20,0 -36,9 -49,25 -12,17 -18,44 -18,82 0,40 6,68 18,85 12,17 28,26 48,26 14,0 27,-6 37,-16 11,-11 18,-28 23,-51zm97 116l0 -316 55 0 0 316 -55 0zm95 -156c0,-32 5,-59 13,-81 6,-16 14,-31 25,-43 10,-13 22,-23 35,-29 16,-8 36,-12 58,-12 40,0 71,14 95,43 24,29 36,69 36,121 0,51 -12,91 -36,120 -23,29 -55,43 -94,43 -41,0 -72,-14 -96,-43 -24,-29 -36,-68 -36,-119zm56 -2c0,36 8,63 22,82 14,18 32,27 53,27 22,0 40,-9 54,-27 14,-19 21,-46 21,-83 0,-36 -7,-63 -21,-81 -13,-18 -31,-27 -54,-27 -22,0 -40,9 -54,27 -14,18 -21,46 -21,82zm234 56l53 -6c3,20 10,36 20,45 9,10 22,15 39,15 17,0 30,-4 39,-13 9,-9 14,-19 14,-30 0,-8 -2,-14 -6,-19 -4,-6 -10,-10 -19,-14 -7,-3 -21,-7 -44,-14 -29,-8 -49,-19 -61,-31 -16,-18 -25,-39 -25,-64 0,-16 4,-31 12,-45 8,-14 19,-25 33,-32 15,-8 33,-11 53,-11 34,0 59,8 76,26 18,17 26,41 27,70l-54 2c-3,-16 -8,-28 -15,-35 -8,-7 -19,-11 -34,-11 -16,0 -28,4 -37,12 -6,5 -9,11 -9,20 0,7 3,14 8,19 7,7 24,14 50,21 27,7 46,15 59,23 12,8 22,18 29,32 8,14 11,30 11,50 0,18 -4,35 -13,51 -8,16 -20,28 -36,35 -16,8 -35,12 -59,12 -34,0 -60,-9 -78,-28 -18,-18 -29,-45 -33,-80zm495 -14l0 -53 117 0 0 126c-11,13 -27,24 -49,34 -22,10 -44,15 -66,15 -28,0 -52,-7 -73,-21 -21,-14 -37,-34 -48,-60 -10,-25 -15,-53 -15,-84 0,-33 6,-62 17,-88 12,-25 29,-45 52,-59 17,-10 39,-15 64,-15 34,0 60,8 79,24 19,17 31,40 36,69l-54 12c-4,-16 -11,-28 -22,-37 -10,-9 -23,-14 -39,-14 -23,0 -42,9 -56,27 -14,18 -21,44 -21,79 0,37 7,65 21,84 14,19 33,28 56,28 11,0 23,-2 34,-8 11,-5 21,-11 30,-19l0 -40 -63 0zm168 116l0 -316 199 0 0 54 -145 0 0 70 135 0 0 53 -135 0 0 86 151 0 0 53 -205 0zm251 0l0 -316 53 0 111 212 0 -212 50 0 0 316 -54 0 -110 -207 0 207 -50 0zm272 0l0 -316 199 0 0 54 -145 0 0 70 135 0 0 53 -135 0 0 86 150 0 0 53 -204 0zm251 0l0 -316 114 0c29,0 50,3 63,9 13,5 24,16 32,30 7,15 11,31 11,50 0,24 -6,43 -17,59 -12,15 -30,25 -54,29 12,8 22,17 29,26 8,10 18,27 31,52l33 61 -65 0 -39 -69c-14,-24 -24,-40 -29,-46 -5,-6 -10,-11 -16,-13 -6,-3 -15,-4 -28,-4l-11 0 0 132 -54 0zm54 -182l41 0c26,0 42,-1 48,-4 7,-2 12,-7 16,-13 3,-7 5,-15 5,-24 0,-11 -2,-19 -7,-26 -5,-6 -12,-11 -21,-12 -4,-1 -17,-1 -39,-1l-43 0 0 80zm460 182l-58 0 -24 -72 -108 0 -22 72 -58 0 105 -316 57 0 108 316zm-99 -125l-38 -117 -36 117 74 0zm130 125l0 -313 54 0 0 260 136 0 0 53 -190 0zm228 0l0 -316 200 0 0 54 -145 0 0 70 135 0 0 53 -135 0 0 86 150 0 0 53 -205 0zm237 -102l53 -6c3,20 10,36 19,45 10,10 23,15 40,15 17,0 30,-4 39,-13 9,-9 14,-19 14,-30 0,-8 -2,-14 -6,-19 -4,-6 -10,-10 -20,-14 -6,-3 -20,-7 -43,-14 -29,-8 -49,-19 -61,-31 -17,-18 -25,-39 -25,-64 0,-16 4,-31 12,-45 8,-14 19,-25 33,-32 15,-8 33,-11 53,-11 34,0 59,8 76,26 17,17 26,41 27,70l-54 2c-3,-16 -8,-28 -15,-35 -8,-7 -19,-11 -34,-11 -16,0 -28,4 -37,12 -6,5 -9,11 -9,20 0,7 3,14 8,19 7,7 24,14 50,21 27,7 46,15 59,23 12,8 22,18 29,32 8,14 11,30 11,50 0,18 -4,35 -13,51 -8,16 -20,28 -36,35 -16,8 -35,12 -59,12 -34,0 -60,-9 -78,-28 -19,-18 -29,-45 -33,-80zm356 0l53 -6c3,20 9,36 19,45 10,10 23,15 39,15 18,0 31,-4 40,-13 9,-9 13,-19 13,-30 0,-8 -2,-14 -5,-19 -4,-6 -11,-10 -20,-14 -6,-3 -21,-7 -43,-14 -29,-8 -50,-19 -61,-31 -17,-18 -25,-39 -25,-64 0,-16 4,-31 11,-45 8,-14 19,-25 34,-32 15,-8 32,-11 53,-11 34,0 59,8 76,26 17,17 26,41 27,70l-55 2c-2,-16 -7,-28 -15,-35 -7,-7 -19,-11 -34,-11 -16,0 -28,4 -37,12 -5,5 -8,11 -8,20 0,7 2,14 8,19 7,7 23,14 50,21 26,7 46,15 58,23 13,8 23,18 30,32 7,14 11,30 11,50 0,18 -5,35 -13,51 -9,16 -21,28 -37,35 -15,8 -35,12 -58,12 -34,0 -60,-9 -79,-28 -18,-18 -29,-45 -32,-80zm264 102l0 -60 52 0 0 60 -52 0zm106 0l0 -316 114 0c29,0 50,3 63,9 13,5 24,16 31,30 8,15 12,31 12,50 0,24 -6,43 -18,59 -11,15 -29,25 -53,29 12,8 22,17 29,26 8,10 18,27 31,52l33 61 -65 0 -39 -69c-14,-24 -24,-40 -29,-46 -5,-6 -10,-11 -16,-13 -6,-3 -15,-4 -28,-4l-11 0 0 132 -54 0zm54 -182l40 0c27,0 43,-1 49,-4 7,-2 12,-7 16,-13 3,-7 5,-15 5,-24 0,-11 -2,-19 -7,-26 -5,-6 -12,-11 -21,-12 -4,-1 -17,-1 -39,-1l-43 0 0 80zm217 182l0 -60 51 0 0 60 -51 0zm106 0l0 -313 55 0 0 260 135 0 0 53 -190 0zm228 0l0 -60 52 0 0 60 -52 0z"/>
  <polygon class="fil1" points="864,7101 9407,7101 9407,7237 864,7237 "/>
  <path class="fil4" d="M1014 3851l0 -324 223 0 0 54 -158 0 0 78 136 0 0 54 -136 0 0 138 -65 0zm277 0l0 -324 240 0 0 54 -175 0 0 73 163 0 0 54 -163 0 0 88 181 0 0 55 -246 0zm302 0l0 -324 138 0c35,0 60,2 76,8 16,6 28,16 38,31 9,15 14,32 14,52 0,24 -7,44 -21,60 -15,16 -36,26 -64,30 14,8 25,17 34,27 10,10 22,28 38,53l39 63 -78 0 -47 -71c-17,-25 -29,-41 -35,-47 -6,-7 -13,-11 -20,-14 -7,-2 -18,-3 -33,-3l-13 0 0 135 -66 0zm66 -187l48 0c32,0 51,-1 59,-4 8,-3 14,-7 19,-14 4,-6 6,-14 6,-24 0,-11 -3,-20 -8,-27 -6,-6 -14,-11 -25,-12 -5,-1 -21,-2 -48,-2l-51 0 0 83zm262 187l0 -324 138 0c34,0 60,2 75,8 16,6 29,16 38,31 10,15 14,32 14,52 0,24 -7,44 -21,60 -14,16 -36,26 -64,30 14,8 26,17 35,27 9,10 22,28 37,53l40 63 -79 0 -47 -71c-17,-25 -28,-41 -34,-47 -7,-7 -13,-11 -20,-14 -7,-2 -18,-3 -33,-3l-14 0 0 135 -65 0zm65 -187l49 0c31,0 51,-1 59,-4 8,-3 14,-7 18,-14 5,-6 7,-14 7,-24 0,-11 -3,-20 -9,-27 -6,-6 -14,-11 -25,-12 -5,-1 -21,-2 -47,-2l-52 0 0 83zm262 187l0 -324 241 0 0 54 -175 0 0 73 162 0 0 54 -162 0 0 88 181 0 0 55 -247 0zm376 0l0 -270 -96 0 0 -54 257 0 0 54 -96 0 0 270 -65 0zm204 0l0 -324 240 0 0 54 -175 0 0 73 163 0 0 54 -163 0 0 88 181 0 0 55 -246 0zm302 0l0 -324 138 0c35,0 60,2 76,8 16,6 28,16 38,31 9,15 14,32 14,52 0,24 -7,44 -22,60 -14,16 -35,26 -64,30 15,8 26,17 35,27 10,10 22,28 38,53l39 63 -78 0 -47 -71c-17,-25 -29,-41 -35,-47 -6,-7 -13,-11 -20,-14 -7,-2 -18,-3 -33,-3l-13 0 0 135 -66 0zm66 -187l48 0c32,0 51,-1 59,-4 8,-3 14,-7 19,-14 4,-6 6,-14 6,-24 0,-11 -3,-20 -8,-27 -6,-6 -15,-11 -25,-12 -5,-1 -21,-2 -48,-2l-51 0 0 83zm259 187l0 -324 66 0 0 324 -66 0zm-10 -354l31 -66 69 0 -61 66 -39 0zm431 354l-71 0 -28 -74 -130 0 -27 74 -69 0 126 -324 69 0 130 324zm-120 -129l-45 -120 -44 120 89 0z"/>
  <polygon class="fil5" points="0,0 10326,0 10326,8791 0,8791 "/>
 </g>
</svg>
